# xmcd CD database file
#
# Track frame offsets:
#	150
#	23685
#	49732
#	71915
#	94612
#	118055
#	143815
#	167250
#	185527
#
# Disc length: 2795 seconds
#
# Revision: 0
# Processed by: cddbd v1.4PL0 Copyright (c) Steve Scherf et al.
# Submitted via: CDex 1.50Beta5
#
DISCID=740ae909
DTITLE=Steven Kroon - Señor Kroon
DYEAR=2002
DGENRE=Jazz
TTITLE0=Señor Kroon
TTITLE1=Amigos
TTITLE2=Mi Alma
TTITLE3=Spring
TTITLE4=My One And Only Love
TTITLE5=Crisis
TTITLE6=Belly Button
TTITLE7=Song for J.D.
TTITLE8=For the Ancestors
EXTD=YEAR: 2002
EXTT0=
EXTT1=
EXTT2=
EXTT3=
EXTT4=
EXTT5=
EXTT6=
EXTT7=
EXTT8=
PLAYORDER=
